<svg xmlns="http://www.w3.org/2000/svg" xmlns:xlink="http://www.w3.org/1999/xlink" viewBox="0 0 531.14 531.14"><defs><style>.cls-1,.cls-5{fill:#fcfcfa;}.cls-1{stroke:#000;stroke-miterlimit:10;stroke-width:12px;}.cls-2{fill:#9e1b2e;}.cls-3{fill:#ccc31d;}.cls-4{mask:url(#mask);}.cls-6{fill:#fff;}</style><mask id="mask" x="0" y="-8675.01" width="531.14" height="32766" maskUnits="userSpaceOnUse"/></defs><title>LogoChatSVG</title><g id="Capa_1" data-name="Capa 1"><circle class="cls-1" cx="265.42" cy="265.75" r="257.28"/><path class="cls-2" d="M390.57,520H337.92c-14.44-.25-20.68-9.9-14.79-23.18,3.95-8.9,11.09-13.69,20.75-14,9.9-.34,19.81-.15,29.72-.05,6.95.07,12.59,3,17.27,8.16a7,7,0,0,0,4.35,2.32c14.57.24,29.13.41,43.69.24,16.75-.19,29.69-8.48,39.92-20.86,15.05-18.22,24.71-39.32,30.11-62.25a154,154,0,0,0-90.39-177.7C331.48,195.9,231.11,246.78,209.23,338.9c-9.22,38.8-3.89,75.75,15,110.83a24.82,24.82,0,0,1,3.25,9.66c.36,5.39-4.43,10.67-9.92,12.18-5.75,1.58-11.2-.33-14.33-5.39-2.19-3.54-3.86-7.4-6-11a4.25,4.25,0,0,0-3.22-1.78c-23.07,1.73-45.39-15.28-49.73-38.18a60,60,0,0,1-1-11c0-21-.53-42.05.29-63,1-25.69,23.48-45.65,49.24-44.71,2.88.1,4.08-.82,5.38-3.27,27.39-51.83,69.68-84.5,127.27-95.53,80.21-15.35,157.32,23.19,194.8,96.05,1.08,2.1,2.23,2.8,4.65,2.73,26.76-.86,48.95,19,49.78,45.65.69,22.54.69,45.14-.16,67.67-1,25.12-25.18,45.53-50.28,43.44-2.32-.19-3.13.85-4,2.58-5.63,11.18-11,22.47-19.14,32.22-12.8,15.44-28.27,26.65-48.29,30.49a93,93,0,0,1-16.35,1.41C421.13,520.12,405.85,520,390.57,520Z" transform="translate(-94.11 -99.01)"/><path class="cls-3" d="M482.31,381.93c-.33,16.87-2.08,30.53-6.62,43.75-.15.45-.32.9-.49,1.34-7.58,18.92-12.81,19.17-29.18,17.16-16.65-2.05-33.09-5.78-49.58-9-28.57-5.53-56.92-4.11-85.24,1.93-12.93,2.76-26,5-39,7.18a46.89,46.89,0,0,1-11.78.27c-5.55-.51-9.18-4.26-12.12-8.63-5-7.44-7.79-15.82-9.48-24.51-8.68-44.5,2.8-83.33,33.2-116.72,8.49-9.33,19.52-11.81,31.39-9.84,11.38,1.88,22.62,4.69,33.86,7.36,18,4.28,35.72,2.36,53.37-2.31,10.47-2.77,21-5.69,32-5.51,8.75.14,16.43,3.05,22.51,9.36,19.44,20.18,31.52,44.09,35.63,71.87C481.68,372,482,378.45,482.31,381.93Z" transform="translate(-94.11 -99.01)"/><g class="cls-4"><circle class="cls-5" cx="265.57" cy="265.57" r="265.57"/></g><path class="cls-6" d="M319,367.93a22.76,22.76,0,0,1-45.51-.22,22.76,22.76,0,0,1,45.51.22Z" transform="translate(-94.11 -99.01)"/><path class="cls-6" d="M423.93,345.1a22.69,22.69,0,0,1,22.71,22.8,22.77,22.77,0,0,1-45.53-.16A22.61,22.61,0,0,1,423.93,345.1Z" transform="translate(-94.11 -99.01)"/></g></svg>